<svg xmlns="http://www.w3.org/2000/svg" width="110.652" height="42.986" xml:space="preserve"><path fill="#0088DD" d="M106.645 3.441c-5.127-3.922-10.567 7.454-2.545 8.541 5.457.741 5.345-5.46 2.545-8.541M0 0c3.32 0 6.851.356 6.851 1.063l-.275 6.53c.319 7.605.653 11.408.995 11.408h.311c.573-.71 4.729-2.452 5.12-2.128l.585-.174c7.65 0 9.07 10.032 9.07 10.032s1.076 6.585 1.307 11.854c0 2.729-3.507 4.092-3.507 4.092l-1.028.311c-.779-.07-1.306-.139-1.306-.139-1.376 0-2.063-.519-2.063-1.547 0 0 .583-5.808.583-7.114 0-3.776-1.213-6.309-3.641-7.591-.528 0-1.065-.162-1.615-.482-2.2 0-3.759 1.373-4.674 4.12l-.31 2.579c.32 2.981.711 4.904 1.169 5.771l.173 1.649-.31.483s-.287.754-.585.754l-2.475-.31H2.452c-.756 0-1.283-.31-1.583-.929V26.596l-.167-6.84v-1.82L0 0zM31.179 28.005v.96c0 3.023 2.152 5.396 6.459 7.114l.584.173c4.236 0 6.895-1.789 7.97-5.362v-.79c0-1.833-1.028-4.133-3.092-6.907-1.281-1.534-3.297-2.303-6.046-2.303-2.658 1.056-4.479 2.658-5.464 4.812l-.411 2.303zm19.413-12.546.137 1.274.859 23.125c0 .365-1.615 1.442-3.127 1.442H46.64l-.448-1.995c-.112-.198-.226-.417-.375-.556-.32 1.116-2.455 1.572-3.411 1.91-2.828.991-5.269.173-7.994-.662-1.896-.578-3.373-1.462-4.923-2.745-1.919-1.583-3.121-3.736-3.121-6.261 0-5.015 1.753-9.048 5.257-12.096 2.589-1.901 4.947-2.988 7.079-3.266h1.272c1.625 0 3.365.606 5.22 1.823 0-.732 1.19-1.823 1.583-1.823h1.992l1.821-.17zM61.573 15.158c.621.166.972.397 1.047.693l-.101 2.578 1.272-1.307.138-.003c.063-.001.678-.428.813-.486.435-.182.894-.351 1.347-.493 2.558-.811 3.89.897 5.525 2.587 1.268 1.313 4.065 3.313 4.118 5.32.039 1.38-4.121 4.408-5.105 3.087-.562-.753-.582-2.047-.975-2.902-.555-1.205-2.065-2.139-3.33-1.968-1.915.255-3.034 1.017-3.635 2.905-.646 2.03-1.497 16.26-1.497 16.26l-2.094.057c-2.137-.123-3.214-.528-3.234-1.216l-.342-23.916v-.138c-.01-.272.509-.542 1.558-.8-.002.001 2.869-.211 4.495-.258M84.575 15.049c.617.184.964.425 1.029.722l-.172 2.578s2.463-1.857 4.501-2.405c0 0 7.218-1.337 8.554 8.382.221 1.588-3.856 3.288-4.636 3.333-.882.052-1.063-2.119-1.206-2.65-.313-1.168-1.03-2.509-2.311-2.807-1.767-.412-3.823.283-4.571 1.967-.893 2.002-.86 13.056-1.436 17.133h-2.949c-2.132-.185-3.196-.617-3.196-1.306l-.138-.859.723-16.972-.273-6.086v-.135c0-.276.524-.527 1.58-.757 0-.001 2.873-.138 4.501-.138M107.322 16.974l1.173 7.37.043.994.262.914 1.067 8.207.786 3.442c-.342 1.784-5.978 3.398-5.978 3.398-1.213 0-2.154-.482-2.817-1.442 0 0-1.122-16.755-1.168-19.14V19.48c0-.527.391-1.122 1.168-1.788l5.464-.718z"/></svg>